<?xml version="1.0" encoding="utf-8"?>
<!-- Generator: Adobe Illustrator 16.0.4, SVG Export Plug-In . SVG Version: 6.00 Build 0)  -->
<!DOCTYPE svg PUBLIC "-//W3C//DTD SVG 1.1//EN" "http://www.w3.org/Graphics/SVG/1.1/DTD/svg11.dtd">
<svg version="1.1" id="图层_1" xmlns="http://www.w3.org/2000/svg" xmlns:xlink="http://www.w3.org/1999/xlink" x="0px" y="0px"
	 width="55px" height="55px" viewBox="0 0 55 55" enable-background="new 0 0 55 55" xml:space="preserve">
<g>
	
		<linearGradient id="SVGID_1_" gradientUnits="userSpaceOnUse" x1="406.1689" y1="-239.7817" x2="439.4688" y2="-282.2675" gradientTransform="matrix(1 0 0 -1 -393.5 -231.5)">
		<stop  offset="0" style="stop-color:#977937"/>
		<stop  offset="0.1798" style="stop-color:#C6B168"/>
		<stop  offset="0.3146" style="stop-color:#A48635"/>
		<stop  offset="1" style="stop-color:#CBBC5B"/>
	</linearGradient>
	<path fill="url(#SVGID_1_)" d="M37.639,28.48c0,0,0.322-0.404,0.551-0.692c0.568,0.274,11.994,5.776,14.836,7.144
		c-3.405,0-23.195,0-23.599,0c-0.18-0.224-0.993-1.246-1.604-2.01c1.686,0,14.369,0,14.369,0c0.216,0,0.401-0.148,0.451-0.357
		c0.008-0.037,0.012-0.069,0.012-0.104c0-0.173-0.1-0.337-0.262-0.416c0,0-4.722-2.272-5.488-2.644
		C37.229,28.994,37.639,28.48,37.639,28.48z M22.981,24.693c0.297,0.143,1.785,0.859,2.318,1.116
		c-1.518,0.73-12.945,6.233-12.945,6.233c-0.162,0.079-0.261,0.243-0.261,0.416c0,0.035,0.004,0.067,0.011,0.104
		c0.048,0.209,0.236,0.357,0.451,0.357c0,0,5.125,0,6.091,0c-0.144,0.624-0.361,1.578-0.459,2.01c-0.632,0-13.312,0-16.465,0
		C4.789,33.455,22.62,24.867,22.981,24.693z M6.803,12.674C9.87,14.15,27.7,22.736,28.062,22.91
		c0.064,0.281,0.355,1.555,0.572,2.509c-1.518-0.731-12.945-6.234-12.945-6.234c-0.194-0.093-0.427-0.04-0.561,0.128
		c-0.066,0.085-0.102,0.187-0.102,0.288s0.035,0.204,0.102,0.288c0,0,3.283,4.118,3.797,4.762c-0.577,0.277-1.459,0.703-1.859,0.895
		C16.676,25.053,8.769,15.139,6.803,12.674z M24.647,31.826c1.052,1.316,8.96,11.234,8.96,11.234
		c0.134,0.166,0.365,0.221,0.562,0.127c0.16-0.078,0.261-0.242,0.261-0.416c0-0.035-0.004-0.068-0.013-0.104
		c0,0-1.168-5.121-1.354-5.938c0.643,0,1.621,0,2.062,0c0.141,0.613,2.961,12.972,3.662,16.049
		c-1.452-1.825-3.975-4.989-3.975-4.989S24.349,34.674,24.077,34.334C24.141,34.055,24.431,32.779,24.647,31.826z M47.943,12.674
		C45.82,15.334,33.48,30.809,33.23,31.122c-0.287,0-1.596,0-2.571,0c1.051-1.317,8.957-11.233,8.957-11.233
		c0.067-0.084,0.102-0.187,0.102-0.288s-0.032-0.203-0.102-0.288c-0.134-0.168-0.366-0.221-0.562-0.128c0,0-4.75,2.288-5.488,2.644
		c-0.041-0.182-0.348-1.53-0.457-2.012C33.678,19.543,45.104,14.041,47.943,12.674z M23.29,28.773c0,0,0.156-0.075,0.235-0.113
		c-0.374,1.643-3.196,14.009-3.196,14.009c-0.008,0.034-0.012,0.067-0.012,0.103c0,0.176,0.098,0.338,0.261,0.418
		c0.194,0.093,0.427,0.039,0.561-0.129c0,0,3.251-4.076,3.799-4.763c0.386,0.485,1.139,1.429,1.284,1.612
		c-0.393,0.492-8.297,10.406-10.264,12.873c0.758-3.32,5.16-22.615,5.25-23.008C21.542,29.616,23.29,28.773,23.29,28.773z
		 M27.374,2.766c0.757,3.32,5.16,22.613,5.25,23.007c-0.179,0.224-0.994,1.246-1.604,2.013c-0.375-1.645-3.196-14.01-3.196-14.01
		c-0.048-0.211-0.234-0.358-0.449-0.358c-0.216,0-0.402,0.147-0.451,0.358c0,0-1.14,4.996-1.354,5.938
		c-0.459-0.221-1.52-0.732-1.859-0.896C23.851,18.203,26.672,5.841,27.374,2.766z"/>
</g>
</svg>
